<?xml version="1.0" standalone="no"?>
<!DOCTYPE svg PUBLIC "-//W3C//DTD SVG 20010904//EN"
 "http://www.w3.org/TR/2001/REC-SVG-20010904/DTD/svg10.dtd">
<svg version="1.0" xmlns="http://www.w3.org/2000/svg"
 width="1250.000000pt" height="1250.000000pt" viewBox="0 0 1250.000000 1250.000000"
 preserveAspectRatio="xMidYMid meet">
<metadata>
Created by potrace 1.14, written by Peter Selinger 2001-2017
</metadata>
<g transform="translate(0.000000,1250.000000) scale(0.100000,-0.100000)"
fill="#000000" stroke="none">
<path d="M5890 12494 c-1049 -63 -2015 -358 -2894 -886 -1638 -983 -2737
-2666 -2981 -4563 -22 -175 -22 -1415 0 -1590 341 -2659 2344 -4808 4970
-5334 417 -84 748 -115 1220 -116 375 0 500 7 805 45 1919 241 3624 1371 4610
3055 94 161 273 517 345 685 536 1262 645 2669 311 3997 -111 440 -255 827
-467 1253 -610 1224 -1607 2216 -2834 2820 -697 342 -1392 537 -2200 616 -143
14 -746 26 -885 18z m-3075 -3169 c39 -8 107 -15 152 -15 133 0 292 -40 428
-108 331 -164 499 -467 571 -1032 15 -113 18 -241 20 -795 2 -363 8 -723 14
-800 38 -481 151 -861 347 -1165 64 -98 228 -266 319 -328 179 -120 396 -198
655 -236 194 -29 242 -18 275 60 21 49 20 3561 0 3676 -46 254 -211 367 -580
398 -153 13 -217 31 -264 75 -35 31 -37 37 -37 92 1 45 8 71 30 113 l30 55
1477 3 1477 2 26 -37 c14 -21 33 -62 41 -91 20 -69 7 -112 -48 -152 -45 -33
-90 -44 -280 -65 -75 -9 -162 -22 -194 -31 -154 -40 -279 -135 -339 -258 -75
-151 -70 -16 -70 -1976 0 -1680 1 -1757 18 -1803 27 -69 55 -81 182 -74 55 3
147 15 204 26 534 111 884 401 1082 898 61 154 134 495 154 718 4 44 10 89 13
100 3 11 6 319 8 685 2 660 8 821 40 1040 31 207 93 402 175 546 60 107 206
253 310 312 190 107 497 176 774 174 201 -1 568 -17 588 -26 15 -7 17 -24 17
-132 0 -68 -3 -124 -6 -124 -3 0 -31 7 -62 16 -44 13 -82 15 -171 11 -257 -12
-428 -104 -493 -265 l-23 -57 0 -915 c-1 -932 -1 -954 -40 -1198 -152 -948
-630 -1578 -1442 -1901 -323 -128 -747 -224 -1157 -261 -129 -11 -175 -27
-202 -68 -17 -25 -18 -68 -15 -625 2 -533 5 -608 21 -687 51 -248 206 -415
473 -506 87 -30 338 -74 425 -74 82 0 102 -18 102 -94 0 -67 -22 -100 -66 -96
-16 1 -713 4 -1549 6 -1267 3 -1521 6 -1533 18 -16 16 -27 85 -18 119 8 32 43
44 146 50 97 6 264 38 360 69 261 84 450 269 496 487 21 99 21 1289 -1 1330
-22 43 -67 58 -210 71 -827 72 -1505 341 -1930 766 -366 366 -585 854 -665
1477 -39 308 -43 448 -36 1182 6 662 5 705 -13 790 -55 263 -206 386 -475 385
-44 -1 -117 -7 -161 -15 -44 -8 -83 -15 -87 -15 -5 0 -8 56 -8 125 l0 124 38
10 c20 6 116 11 212 12 96 1 189 5 205 9 52 13 197 11 270 -5z"/>
</g>
</svg>
